<svg xmlns="http://www.w3.org/2000/svg" width="208" height="52" viewBox="0 0 208 52">
    <g fill="none" fill-rule="evenodd">
        <path fill="#10A310" d="M.471 3.92C2.635 3.412 11.232 1.484 22.974 0c12.294 1.575 20.421 3.42 22.501 3.917.303.073.5.36.464.669l-4.38 37.07c-.022.183-.124.346-.278.446l-17.715 9.38c-.375.198-.824.198-1.2 0l-17.703-9.38c-.155-.1-.257-.263-.279-.445L.004 4.589c-.037-.31.163-.598.467-.67"/>
        <g>
            <path fill="#FFF" d="M22.828 40.262c.108-.057.176-.169.177-.291l.126-13.82c0-.188-.015-.342-.153-.47l-8.748-9.406c-.143-.154-.222-.354-.22-.564.008-1.896.048-11.55-.027-14.561-.005-.203-.187-.355-.386-.322C7.867 1.77 1.642 3.086.384 3.382c-.248.058-.41.293-.38.546L1.86 19.673l8.598 7.385c.074.063.117.156.117.254v2.627c0 .158-.165.262-.307.195L2.67 26.549l.9 7.627c.017.149.1.282.226.362l14.415 7.654c.306.163.672.163.978 0l3.638-1.93z" transform="translate(4.51 4.51)"/>
            <path fill="#F5F5F5" d="M37.02 3.216C35.486 2.85 22.238.624 19.778.202c-.206-.036-.392.122-.392.329v14.484c0 .199.072.391.204.541l7.819 8.895c.054.066.08.15.074.235l-.16 12.296c-.003.25.266.414.49.296l5.777-3.038c.126-.08.21-.213.227-.361l1.46-12.27c.025-.21-.052-.419-.207-.563l-7.367-6.871c-.134-.125-.21-.3-.21-.483v-1.654c0-.146.154-.243.287-.18l7.73 1.613c.386.08.758-.185.804-.574L37.4 3.759c.03-.251-.132-.485-.38-.543" transform="translate(4.51 4.51)"/>
        </g>
        
    </g>
</svg>
